<svg xmlns="http://www.w3.org/2000/svg" viewBox="0 0 85 76" width="85" height="76">
	<style>
		tspan { white-space:pre }
		.shp0 { fill: #121212 } 
	</style>
	<g id="Product">
		<path id="Forma 1" class="shp0" d="M46.22 2.61C44.7 1.75 42.9 1.77 41.41 2.68C41.34 2.72 41.27 2.77 41.21 2.82L20.11 20.77L3.56 20.77C2.7 20.77 2 21.47 2 22.34L2 52.08C2 52.5 2.16 52.9 2.46 53.19C2.75 53.48 3.14 53.65 3.56 53.65L20.08 53.64L41.16 73.12C41.24 73.19 41.32 73.25 41.41 73.3C42.18 73.77 43.03 74 43.87 74C44.68 74 45.48 73.79 46.22 73.37C47.78 72.49 48.71 70.88 48.71 69.06L48.71 6.93C48.71 5.11 47.78 3.5 46.22 2.61ZM45.59 69.06C45.59 69.74 45.26 70.33 44.69 70.65C44.45 70.78 43.84 71.05 43.14 70.69L22.24 51.39L22.24 44.26C22.24 43.39 21.54 42.69 20.68 42.69C19.82 42.69 19.13 43.39 19.13 44.26L19.13 50.51L5.11 50.52L5.11 23.9L19.13 23.9L19.13 30.16C19.13 31.03 19.82 31.73 20.68 31.73C21.54 31.73 22.24 31.03 22.24 30.16L22.24 23.06L43.11 5.31C43.83 4.93 44.45 5.2 44.69 5.34C45.26 5.66 45.59 6.25 45.59 6.93L45.59 69.06ZM62.4 8.33C61.59 8.05 60.71 8.49 60.43 9.31C60.15 10.13 60.59 11.02 61.4 11.3C72.46 15.07 79.89 25.48 79.89 37.21C79.89 48.93 72.47 59.34 61.44 63.13C60.63 63.41 60.19 64.29 60.47 65.12C60.69 65.77 61.29 66.18 61.94 66.18C62.11 66.18 62.28 66.15 62.44 66.09C74.74 61.88 83 50.27 83 37.21C83 24.14 74.72 12.54 62.4 8.33ZM68.99 37.21C68.99 27.86 62.75 19.52 53.81 16.92C52.98 16.68 52.12 17.15 51.88 17.99C51.64 18.82 52.12 19.69 52.95 19.93C60.56 22.14 65.88 29.24 65.88 37.21C65.88 45.17 60.56 52.28 52.95 54.49C52.12 54.73 51.64 55.6 51.88 56.43C52.08 57.12 52.7 57.56 53.38 57.56C53.52 57.56 53.67 57.54 53.81 57.5C62.75 54.9 68.99 46.56 68.99 37.21Z" />
	</g>
</svg>